<svg width="949" height="363" viewBox="0 0 949 363" fill="none" xmlns="http://www.w3.org/2000/svg">
<g clip-path="url(#clip0_6_33)">
<circle cx="182" cy="166" r="32.9394" stroke="#F66E21" stroke-width="20"/>
<circle cx="181.53" cy="166.53" r="68.5" stroke="#F66E21" stroke-width="8"/>
<circle cx="182" cy="166" r="99" stroke="#F66E21" stroke-width="20"/>
<path d="M711.767 264.465C707.763 264.465 704.638 263.195 702.392 260.656C700.146 258.117 699.023 254.699 699.023 250.402V85.168C699.023 77.1602 700.83 71.4961 704.443 68.1758C708.154 64.7578 714.306 63.0488 722.9 63.0488H771.679C784.472 63.0488 795.605 65.6367 805.078 70.8125C814.648 75.9883 822.07 83.2637 827.344 92.6387C832.715 101.916 835.4 112.756 835.4 125.158C835.4 137.658 832.715 148.547 827.344 157.824C822.07 167.102 814.648 174.328 805.078 179.504C795.508 184.582 784.277 187.121 771.386 187.121H724.511V250.402C724.511 254.699 723.388 258.117 721.142 260.656C718.896 263.195 715.771 264.465 711.767 264.465ZM724.658 164.709H755.127C774.951 164.709 788.916 161.779 797.021 155.92C805.127 149.963 809.179 139.709 809.179 125.158C809.179 112.658 805.761 102.941 798.926 96.0078C792.187 89.0742 782.617 85.6074 770.215 85.6074H724.658V164.709Z" fill="#F66E21"/>
<path d="M656.991 237.236C656.989 240.752 655.913 243.485 653.764 245.437C651.614 247.389 648.651 248.364 644.875 248.362L533.84 248.3C529.999 248.298 527.037 247.32 524.955 245.366C522.808 243.412 521.735 240.677 521.737 237.161C521.739 233.71 522.815 231.009 524.964 229.057C527.049 227.105 530.011 226.13 533.853 226.133L644.888 226.194C648.664 226.196 651.626 227.174 653.773 229.129C655.92 231.018 656.993 233.72 656.991 237.236Z" fill="#F66E21"/>
<path d="M638.743 184.938C638.741 186.94 638.106 188.502 636.836 189.625C635.566 190.747 633.856 191.308 631.708 191.306L544.33 191.258C542.133 191.257 540.424 190.694 539.204 189.571C537.935 188.447 537.301 186.884 537.302 184.882C537.303 182.88 537.939 181.318 539.209 180.196C540.43 179.024 542.14 178.439 544.337 178.441L631.715 178.489C633.863 178.49 635.572 179.077 636.841 180.25C638.11 181.373 638.744 182.936 638.743 184.938Z" fill="#F66E21"/>
<path d="M656.992 128.181C656.99 131.696 655.914 134.43 653.765 136.382C651.615 138.334 648.653 139.309 644.877 139.307L533.841 139.245C530 139.243 527.039 138.265 524.956 136.311C522.809 134.356 521.736 131.621 521.738 128.106C521.74 124.655 522.816 121.954 524.965 120.002C527.05 118.05 530.013 117.075 533.854 117.077L644.889 117.139C648.665 117.141 651.627 118.119 653.774 120.074C655.921 121.963 656.994 124.665 656.992 128.181Z" fill="#F66E21"/>
<path d="M422.541 264.465C418.635 264.465 415.51 263.195 413.166 260.656C410.92 258.117 409.797 254.748 409.797 250.549L409.943 175.695L355.012 85.168C353.059 81.75 351.74 79.2598 351.057 77.6973C350.373 76.0371 350.031 74.377 350.031 72.7168C350.031 69.1035 351.105 66.2227 353.254 64.0742C355.402 61.9258 358.283 60.8516 361.896 60.8516C364.729 60.8516 367.17 61.6816 369.221 63.3418C371.271 64.9043 373.518 67.7852 375.959 71.9844L422.102 151.379H423.127L469.416 71.9844C471.857 67.7852 474.104 64.9043 476.154 63.3418C478.205 61.6816 480.646 60.8516 483.479 60.8516C487.092 60.8516 489.973 61.9258 492.121 64.0742C494.27 66.2227 495.344 69.1035 495.344 72.7168C495.344 74.377 494.953 76.0371 494.172 77.6973C493.488 79.2598 492.17 81.7988 490.217 85.3145L435.285 175.695L435.432 250.549C435.432 254.748 434.26 258.117 431.916 260.656C429.67 263.195 426.545 264.465 422.541 264.465Z" fill="#F66E21"/>
</g>
<defs>
<clipPath id="clip0_6_33">
<rect width="949" height="363" fill="white"/>
</clipPath>
</defs>
</svg>
